# xmcd
#
# Track frame offsets:
#	150
#	20918
#	38359
#	50980
#	71453
#	89741
#	101956
#	118478
#	135781
#	145876
#	155432
#	166812
#	179153
#
# Disc length: 2522 seconds
# Revision: 1
# Processed by: cddbd v1.5.2PL0 Copyright (c) Steve Scherf et al.
# Submitted via: dBpowerAMP V12.0
#
DISCID=c009d80d
DTITLE=Johnny Cash - Ride This Train
DYEAR=1960
DGENRE=Country
TTITLE0=Loading Coal
TTITLE1=Slow Rider
TTITLE2=Lumberjack
TTITLE3=Dorraine Of Porchartrain
TTITLE4=Going to Memphis
TTITLE5=When Papa Played the Dobro
TTITLE6=Boss Jack
TTITLE7=Old Doc Brown
TTITLE8=Girl In Saskatoon (1960 Bonus Track)
TTITLE9=Smiling Bill McCall (1960 Bonus Track)
TTITLE10=Port Of Lonely Hearts (1960 Bonus Track)
TTITLE11=Give My Love To Rose (1957 Bonus Track)
TTITLE12=Straight A's In Love (1959 Bonus Track)
EXTD=
EXTT0=
EXTT1=
EXTT2=
EXTT3=
EXTT4=
EXTT5=
EXTT6=
EXTT7=
EXTT8=
EXTT9=
EXTT10=
EXTT11=
EXTT12=
PLAYORDER=
